<?xml version="1.0" encoding="UTF-8"?>
<!DOCTYPE svg PUBLIC "-//W3C//DTD SVG 1.1//EN" "http://www.w3.org/Graphics/SVG/1.1/DTD/svg11.dtd">
<!-- Creator: CorelDRAW 2019 (64 Bit) -->
<svg xmlns="http://www.w3.org/2000/svg" xml:space="preserve" width="223.141mm" height="66.4358mm" version="1.1" style="shape-rendering:geometricPrecision; text-rendering:geometricPrecision; image-rendering:optimizeQuality; fill-rule:evenodd; clip-rule:evenodd"
viewBox="0 0 22313 6643.26"
 xmlns:xlink="http://www.w3.org/1999/xlink">
 <defs>
  <style type="text/css">
   <![CDATA[
    .str0 {stroke:white;stroke-width:20;stroke-miterlimit:22.9256}
    .str1 {stroke:#2E384D;stroke-width:7.62;stroke-miterlimit:22.9256}
    .str3 {stroke:#4CD62B;stroke-width:7.62;stroke-miterlimit:22.9256}
    .str2 {stroke:white;stroke-width:7.62;stroke-miterlimit:22.9256}
    .fil8 {fill:none}
    .fil5 {fill:none;fill-rule:nonzero}
    .fil2 {fill:#2E384D}
    .fil3 {fill:#4CD62B}
    .fil1 {fill:#5965E0}
    .fil6 {fill:white}
    .fil0 {fill:white}
    .fil7 {fill:#2AA9E0;fill-rule:nonzero}
    .fil4 {fill:white;fill-rule:nonzero}
   ]]>
  </style>
    <clipPath id="id0">
     <path d="M1352.7 2166.38l4700.28 0 0 -940.04 -4700.28 0 0 940.04z"/>
    </clipPath>
    <clipPath id="id1">
     <path d="M16117.51 2166.38l4700.28 0 0 -940.04 -4700.28 0 0 940.04z"/>
    </clipPath>
 </defs>
 <g id="Camada_x0020_1">
  <metadata id="CorelCorpID_0Corel-Layer"/>
  <g id="_2509810565280">
   <path class="fil0 str0" d="M1315.16 10l19682.69 0c720.7,0 1305.16,481.38 1305.16,1074.98l0 4473.31c0,593.59 -584.46,1074.97 -1305.16,1074.97l-19682.69 0.01c-720.69,-0.01 -1305.15,-481.39 -1305.15,-1074.99l-0.01 -4473.3c0.01,-593.6 584.47,-1074.98 1305.17,-1074.98z"/>
   <path class="fil1" d="M715.48 2586.88l4550.04 0c251.26,0.01 455.02,224.26 455.02,500.8l-0.01 1053.32c0.01,276.52 -203.75,500.77 -455,500.77l-4550.05 0.02c-251.24,-0.02 -455,-224.27 -455,-500.8l-0.01 -1053.33c0.01,-276.52 203.77,-500.77 455.02,-500.77l-0.01 -0.01z"/>
   <path class="fil2 str1" d="M5105.29 2586.86l1814.04 0c284.27,0 514.8,175.67 514.8,392.3l-0.01 1270.34c0.01,216.62 -230.52,392.29 -514.78,392.29l-1814.05 0.01c-284.25,-0.01 -514.78,-175.68 -514.78,-392.31l-0.02 -1270.33c0.02,-216.63 230.55,-392.3 514.81,-392.3z"/>
   <g>
    <polygon class="fil3" points="3438.41,4137.38 3273.91,4137.38 3112.63,3698.12 2949.82,4137.38 2785.5,4137.38 2508.97,3390.45 2719.7,3390.45 2875.08,3837.13 3035.02,3390.45 3188.89,3390.45 3348.82,3838.64 3504.2,3390.45 3714.92,3390.45 "/>
    <polygon class="fil3" points="2185.56,3080.79 2185.56,4147.05 2382.79,4147.05 2382.79,3080.79 "/>
    <path class="fil3" d="M1880.07 3467.38c54.84,58.2 82.17,133.77 82.17,226.38l0 454.1 -197.22 0 0 -412.43c0,-52.81 -13.67,-95.15 -41.17,-127.02 -27.33,-31.88 -63.95,-47.74 -109.83,-47.74 -123.49,0 -185.24,85.7 -185.24,256.91l0 330.11 -197.23 0 0 -745.41 197.23 0 0 67.3c59.73,-59.71 138,-89.57 234.51,-89.57 89.76,-0.17 161.96,29.01 216.79,87.38z"/>
    <polygon class="fil3" points="3867.53,4078.62 3867.53,3874 4157.28,3763.85 3867.53,3653.69 3867.53,3449.07 4432.39,3659.27 4433.74,3658.77 4433.74,3659.77 4433.74,3867.94 4433.74,3868.94 4432.39,3868.44 "/>
    <polygon class="fil3" points="1020.49,3653.61 1020.49,3448.99 455.42,3659.27 454.29,3658.84 454.29,3659.68 454.29,3868.01 454.29,3868.85 455.42,3868.43 1020.49,4078.7 1020.49,3874.08 730.52,3763.84 "/>
   </g>
   <path class="fil4" d="M5455.59 3800.83l-112.34 0 -41.58 239.88 -107.74 0 42.18 -239.88 -132.92 0 0 -99.55 149.92 0 29.78 -170.31 -135.92 0 0 -99.56 153.51 0 42.78 -243.47 107.14 0 -42.78 243.47 112.54 0 43.18 -243.47 107.14 0 -42.58 243.47 128.73 0 0 99.56 -146.32 0 -29.99 170.31 131.93 0 0 99.55 -148.92 0 -42.18 239.88 -107.74 0 42.18 -239.88zm-94.75 -99.55l111.73 0 29.99 -170.31 -112.54 0 -29.18 170.31z"/>
   <path id="1" class="fil4" d="M6421.29 3708.48c0,112.73 -25.78,198.29 -77.56,256.67 -51.77,58.37 -121.73,87.55 -209.89,87.55 -89.16,0 -159.52,-29.18 -211.49,-87.55 -51.98,-58.38 -77.97,-143.93 -77.97,-256.67l0 -187.71c0,-112.53 25.99,-198.09 77.77,-256.67 51.57,-58.77 121.73,-88.16 210.49,-88.16 88.16,0 158.32,29.39 210.49,88.16 52.18,58.58 78.16,144.13 78.16,256.67l0 187.71zm-170.31 -205.5c0,-67.37 -10.19,-116.73 -30.58,-148.12 -20.19,-31.39 -49.58,-46.98 -87.76,-46.98 -38.78,0 -67.97,15.59 -87.96,46.78 -19.79,31.19 -29.79,80.56 -29.79,148.32l0 221.49c0,68.57 10,118.33 30.19,149.52 19.99,31.18 49.58,46.78 88.76,46.78 38.18,0 67.37,-15.6 87.16,-46.78 19.99,-31.19 29.98,-80.96 29.98,-149.52l0 -221.49z"/>
   <path id="2" class="fil4" d="M7036.19 3724.07l96.55 0 0 131.93 -96.55 0 0 184.7 -170.51 0 0 -184.7 -347.82 0 -7.6 -102.56 353.82 -565.5 172.11 0 0 536.12zm-366.61 0l196.1 0 0 -307.65 -3.4 -1.2 -13.59 23.99 -179.11 284.86z"/>
   <path id="3" class="fil5 str2" d="M5455.59 3800.83l-112.34 0 -41.58 239.88 -107.74 0 42.18 -239.88 -132.92 0 0 -99.55 149.92 0 29.78 -170.31 -135.92 0 0 -99.56 153.51 0 42.78 -243.47 107.14 0 -42.78 243.47 112.54 0 43.18 -243.47 107.14 0 -42.58 243.47 128.73 0 0 99.56 -146.32 0 -29.99 170.31 131.93 0 0 99.55 -148.92 0 -42.18 239.88 -107.74 0 42.18 -239.88zm-94.75 -99.55l111.73 0 29.99 -170.31 -112.54 0 -29.18 170.31z"/>
   <path id="4" class="fil5 str2" d="M6421.29 3708.48c0,112.73 -25.78,198.29 -77.56,256.67 -51.77,58.37 -121.73,87.55 -209.89,87.55 -89.16,0 -159.52,-29.18 -211.49,-87.55 -51.98,-58.38 -77.97,-143.93 -77.97,-256.67l0 -187.71c0,-112.53 25.99,-198.09 77.77,-256.67 51.57,-58.77 121.73,-88.16 210.49,-88.16 88.16,0 158.32,29.39 210.49,88.16 52.18,58.58 78.16,144.13 78.16,256.67l0 187.71zm-170.31 -205.5c0,-67.37 -10.19,-116.73 -30.58,-148.12 -20.19,-31.39 -49.58,-46.98 -87.76,-46.98 -38.78,0 -67.97,15.59 -87.96,46.78 -19.79,31.19 -29.79,80.56 -29.79,148.32l0 221.49c0,68.57 10,118.33 30.19,149.52 19.99,31.18 49.58,46.78 88.76,46.78 38.18,0 67.37,-15.6 87.16,-46.78 19.99,-31.19 29.98,-80.96 29.98,-149.52l0 -221.49z"/>
   <path id="5" class="fil5 str2" d="M7036.19 3724.07l96.55 0 0 131.93 -96.55 0 0 184.7 -170.51 0 0 -184.7 -347.82 0 -7.6 -102.56 353.82 -565.5 172.11 0 0 536.12zm-366.61 0l196.1 0 0 -307.65 -3.4 -1.2 -13.59 23.99 -179.11 284.86z"/>
   <g>
    <path class="fil1" d="M17047.47 2586.88l4550.04 0c251.26,0.01 455.02,224.26 455.02,500.8l-0.01 1053.32c0.01,276.52 -203.75,500.77 -455,500.77l-4550.05 0.02c-251.24,-0.02 -455,-224.27 -455,-500.8l-0.01 -1053.33c0.01,-276.52 203.77,-500.77 455.02,-500.77l-0.01 -0.01z"/>
    <path class="fil2 str1" d="M15397.57 2586.86l1814.04 0c284.27,0 514.8,175.67 514.8,392.3l-0.01 1270.34c0.01,216.62 -230.52,392.29 -514.78,392.29l-1814.05 0.01c-284.25,-0.01 -514.78,-175.68 -514.78,-392.31l-0.02 -1270.33c0.02,-216.63 230.55,-392.3 514.81,-392.3z"/>
   </g>
   <path class="fil4" d="M15611.71 3800.83l-112.34 0 -41.58 239.88 -107.74 0 42.18 -239.88 -132.92 0 0 -99.55 149.92 0 29.78 -170.31 -135.92 0 0 -99.56 153.51 0 42.78 -243.47 107.14 0 -42.78 243.47 112.54 0 43.18 -243.47 107.14 0 -42.58 243.47 128.73 0 0 99.56 -146.32 0 -29.99 170.31 131.93 0 0 99.55 -148.92 0 -42.18 239.88 -107.74 0 42.18 -239.88zm-94.75 -99.55l111.73 0 29.99 -170.31 -112.54 0 -29.18 170.31z"/>
   <path id="1" class="fil4" d="M16577.41 3708.48c0,112.73 -25.78,198.29 -77.56,256.67 -51.77,58.37 -121.73,87.55 -209.89,87.55 -89.16,0 -159.52,-29.18 -211.49,-87.55 -51.98,-58.38 -77.97,-143.93 -77.97,-256.67l0 -187.71c0,-112.53 25.99,-198.09 77.77,-256.67 51.57,-58.77 121.73,-88.16 210.49,-88.16 88.16,0 158.32,29.39 210.49,88.16 52.18,58.58 78.16,144.13 78.16,256.67l0 187.71zm-170.31 -205.5c0,-67.37 -10.19,-116.73 -30.58,-148.12 -20.19,-31.39 -49.58,-46.98 -87.76,-46.98 -38.78,0 -67.97,15.59 -87.96,46.78 -19.79,31.19 -29.79,80.56 -29.79,148.32l0 221.49c0,68.57 10,118.33 30.19,149.52 19.99,31.18 49.58,46.78 88.76,46.78 38.18,0 67.37,-15.6 87.16,-46.78 19.99,-31.19 29.98,-80.96 29.98,-149.52l0 -221.49z"/>
   <path id="2" class="fil4" d="M17192.3 3724.07l96.55 0 0 131.93 -96.55 0 0 184.7 -170.51 0 0 -184.7 -347.82 0 -7.6 -102.56 353.82 -565.5 172.11 0 0 536.12zm-366.61 0l196.1 0 0 -307.65 -3.4 -1.2 -13.59 23.99 -179.11 284.86z"/>
   <path id="3" class="fil5 str2" d="M15611.71 3800.83l-112.34 0 -41.58 239.88 -107.74 0 42.18 -239.88 -132.92 0 0 -99.55 149.92 0 29.78 -170.31 -135.92 0 0 -99.56 153.51 0 42.78 -243.47 107.14 0 -42.78 243.47 112.54 0 43.18 -243.47 107.14 0 -42.58 243.47 128.73 0 0 99.56 -146.32 0 -29.99 170.31 131.93 0 0 99.55 -148.92 0 -42.18 239.88 -107.74 0 42.18 -239.88zm-94.75 -99.55l111.73 0 29.99 -170.31 -112.54 0 -29.18 170.31z"/>
   <path id="4" class="fil5 str2" d="M16577.41 3708.48c0,112.73 -25.78,198.29 -77.56,256.67 -51.77,58.37 -121.73,87.55 -209.89,87.55 -89.16,0 -159.52,-29.18 -211.49,-87.55 -51.98,-58.38 -77.97,-143.93 -77.97,-256.67l0 -187.71c0,-112.53 25.99,-198.09 77.77,-256.67 51.57,-58.77 121.73,-88.16 210.49,-88.16 88.16,0 158.32,29.39 210.49,88.16 52.18,58.58 78.16,144.13 78.16,256.67l0 187.71zm-170.31 -205.5c0,-67.37 -10.19,-116.73 -30.58,-148.12 -20.19,-31.39 -49.58,-46.98 -87.76,-46.98 -38.78,0 -67.97,15.59 -87.96,46.78 -19.79,31.19 -29.79,80.56 -29.79,148.32l0 221.49c0,68.57 10,118.33 30.19,149.52 19.99,31.18 49.58,46.78 88.76,46.78 38.18,0 67.37,-15.6 87.16,-46.78 19.99,-31.19 29.98,-80.96 29.98,-149.52l0 -221.49z"/>
   <path id="5" class="fil5 str2" d="M17192.3 3724.07l96.55 0 0 131.93 -96.55 0 0 184.7 -170.51 0 0 -184.7 -347.82 0 -7.6 -102.56 353.82 -565.5 172.11 0 0 536.12zm-366.61 0l196.1 0 0 -307.65 -3.4 -1.2 -13.59 23.99 -179.11 284.86z"/>
   <g>
    <polygon class="fil3" points="20666.35,4063.9 20501.86,4063.9 20340.57,3624.64 20177.76,4063.9 20013.44,4063.9 19736.91,3316.96 19947.64,3316.96 20103.03,3763.64 20262.96,3316.96 20416.83,3316.96 20576.76,3765.15 20732.15,3316.96 20942.87,3316.96 "/>
    <polygon class="fil3" points="19413.5,3007.31 19413.5,4073.57 19610.73,4073.57 19610.73,3007.31 "/>
    <path class="fil3" d="M19188.01 3393.89c54.84,58.2 82.17,133.77 82.17,226.38l0 454.1 -197.22 0 0 -412.43c0,-52.81 -13.67,-95.15 -41.17,-127.02 -27.33,-31.88 -63.95,-47.74 -109.83,-47.74 -123.49,0 -185.24,85.7 -185.24,256.91l0 330.11 -197.23 0 0 -745.41 197.23 0 0 67.3c59.73,-59.71 138,-89.57 234.51,-89.57 89.76,-0.17 161.96,29.01 216.79,87.38z"/>
    <polygon class="fil3" points="18408.43,3580.12 18408.43,3375.5 17843.35,3585.78 17842.22,3585.35 17842.22,3586.19 17842.22,3794.52 17842.22,3795.36 17843.35,3794.94 18408.43,4005.21 18408.43,3800.59 18118.45,3690.35 "/>
    <g>
     <polygon class="fil3 str3" points="21143.59,3155.07 20811.4,4221.35 21008.64,4221.35 21340.83,3155.07 "/>
     <polygon class="fil3" points="21334.9,4002.99 21334.9,3798.37 21624.65,3688.22 21334.9,3578.06 21334.9,3373.44 21899.76,3583.64 21901.11,3583.14 21901.11,3584.14 21901.11,3792.31 21901.11,3793.31 21899.76,3792.81 "/>
    </g>
   </g>
   <g id="favicon.svg">
    <rect class="fil1" x="8904.6" y="1071.76" width="4499.79" height="4499.79"/>
    <polygon class="fil6" points="11013.23,2056.08 11653.52,2056.08 11120.85,4587.22 10480.56,4587.22 "/>
    <polygon class="fil6" points="11942.88,2056.08 12579.55,2056.08 12166.86,4031.62 11530.05,4031.62 "/>
    <polygon class="fil6" points="10090.83,2056.08 10727.48,2056.08 10314.82,4031.62 9677.98,4031.62 "/>
   </g>
   <path class="fil7" d="M1601.81 5704.25l-31.61 0c-25.58,0 -45.53,-7.34 -59.83,-22.01 -14.3,-14.68 -21.44,-35.19 -21.44,-61.53l0 -105.54c0,-26.34 7.43,-46.85 22.29,-61.52 14.86,-14.68 35.28,-22.01 61.24,-22.01l122.48 0c5.26,0 7.9,2.63 7.9,7.9l0 279.95c0,25.96 -7.43,46.38 -22.3,61.24 -14.86,14.87 -35.27,22.3 -61.24,22.3l-103.86 0c-5.64,0 -8.46,-2.64 -8.46,-7.91l0 -20.88c0,-5.27 2.82,-7.9 8.46,-7.9l98.78 0c31.61,0 47.41,-16.18 47.41,-48.54l0 -43.47 -2.25 0c-9.79,19.95 -28.98,29.92 -57.58,29.92zm59.83 -88.05l0 -143.36c0,-3.39 -1.88,-5.08 -5.64,-5.08l-78.46 0c-31.61,0 -47.41,16.37 -47.41,49.11l0 102.16c0,32.74 15.8,49.11 47.41,49.11l31.61 0c16.93,0 29.92,-4.52 38.95,-13.55 9.03,-9.03 13.54,-21.83 13.54,-38.38z"/>
   <path id="1" class="fil7" d="M1783.56 5384.22l0 -53.05c0,-5.27 2.44,-7.91 7.34,-7.91l25.96 0c5.27,0 7.9,2.64 7.9,7.91l0 53.05c0,5.27 -2.63,7.9 -7.9,7.9l-25.96 0c-4.9,0 -7.34,-2.63 -7.34,-7.9zm0 327.36l0 -272.05c0,-5.27 2.44,-7.9 7.34,-7.9l25.96 0c5.27,0 7.9,2.63 7.9,7.9l0 272.05c0,5.27 -2.63,7.9 -7.9,7.9l-25.4 0c-5.27,0 -7.9,-2.63 -7.9,-7.9z"/>
   <path id="2" class="fil7" d="M1916.19 5467.76l-31.04 0c-5.27,0 -7.91,-2.45 -7.91,-7.34l0 -20.88c0,-5.27 2.64,-7.9 7.91,-7.9l31.04 0c3.76,0 5.65,-1.7 5.65,-5.08l0 -48.55c0,-5.26 2.63,-7.9 7.9,-7.9l25.4 0c4.89,0 7.33,2.64 7.33,7.9l0 48.55c0,3.38 2.07,5.08 6.21,5.08l59.83 0c5.65,0 8.47,2.63 8.47,7.9l0 20.88c0,4.89 -2.82,7.34 -8.47,7.34l-59.83 0c-4.14,0 -6.21,1.69 -6.21,5.08l0 162.55c0,31.98 16.56,47.98 49.68,47.98l22.01 0c5.64,0 8.47,2.63 8.47,7.9l0 20.88c0,4.89 -2.83,7.34 -8.47,7.34l-27.09 0c-25.97,0 -46.66,-7.24 -62.09,-21.73 -15.43,-14.49 -23.14,-34.71 -23.14,-60.68l0 -164.24c0,-3.39 -1.89,-5.08 -5.65,-5.08z"/>
   <path id="3" class="fil7" d="M2135.75 5719.49l-25.4 0c-5.27,0 -7.9,-2.63 -7.9,-7.9l0 -380.98c0,-5.27 2.63,-7.9 7.9,-7.9l25.4 0c5.27,0 7.9,2.63 7.9,7.9l0 130.94 2.26 0c9.41,-19.94 28.6,-29.91 57.57,-29.91l31.61 0c25.59,0 45.53,7.33 59.83,22.01 14.3,14.67 21.45,35.18 21.45,61.52l0 196.42c0,5.27 -2.63,7.9 -7.9,7.9l-25.4 0c-5.27,0 -7.9,-2.63 -7.9,-7.9l0 -194.72c0,-32.74 -15.81,-49.11 -47.42,-49.11l-31.61 0c-16.93,0 -29.91,4.52 -38.94,13.55 -9.03,9.03 -13.55,21.82 -13.55,38.38l0 191.9c0,5.27 -2.63,7.9 -7.9,7.9z"/>
   <path id="4" class="fil7" d="M2501.48 5719.49l-31.61 0c-25.58,0 -45.53,-7.34 -59.83,-22.01 -14.3,-14.68 -21.45,-35.19 -21.45,-61.53l0 -196.41c0,-5.27 2.64,-7.9 7.91,-7.9l25.4 0c5.26,0 7.9,2.63 7.9,7.9l0 194.72c0,32.74 15.61,49.11 46.85,49.11l32.17 0c16.93,0 29.92,-4.52 38.95,-13.55 9.03,-9.03 13.54,-21.83 13.54,-38.38l0 -191.9c0,-5.27 2.64,-7.9 7.9,-7.9l25.4 0c5.27,0 7.91,2.63 7.91,7.9l0 272.05c0,5.27 -2.64,7.9 -7.91,7.9l-25.4 0c-5.26,0 -7.9,-2.63 -7.9,-7.9l0 -22.02 -2.25 0c-9.41,19.95 -28.6,29.92 -57.58,29.92z"/>
   <path id="5" class="fil7" d="M2727.24 5683.37l80.16 0c31.98,0 47.97,-16.37 47.97,-49.11l0 -120.78c0,-32.74 -15.99,-49.11 -47.97,-49.11l-33.31 0c-16.93,0 -29.91,4.52 -38.94,13.55 -9.03,9.03 -13.55,21.64 -13.55,37.82l0 162.55c0,3.38 1.88,5.08 5.64,5.08zm-46.84 28.22l0 -380.98c0,-5.27 2.63,-7.9 7.9,-7.9l25.4 0c5.27,0 7.9,2.63 7.9,7.9l0 127.55 2.26 0c9.41,-19.94 28.6,-29.91 57.57,-29.91l31.61 0c25.59,0 45.81,7.34 60.68,22.01 14.86,14.68 22.29,35 22.29,60.96l0 124.73c0,26.34 -7.43,46.85 -22.29,61.53 -14.87,14.67 -35.09,22.01 -60.68,22.01l-124.73 0c-5.27,0 -7.9,-2.63 -7.9,-7.9z"/>
   <path id="6" class="fil7" d="M3006.06 5643.29l0 68.3c0,5.27 -2.44,7.9 -7.33,7.9l-28.79 0c-4.89,0 -7.34,-2.63 -7.34,-7.9l0 -68.3c0,-4.89 2.45,-7.34 7.34,-7.34l28.79 0c4.89,0 7.33,2.45 7.33,7.34z"/>
   <path id="7" class="fil7" d="M3245.38 5691.27l0 20.88c0,4.89 -2.64,7.34 -7.91,7.34l-81.84 0c-25.97,0 -46.38,-7.34 -61.24,-22.01 -14.87,-14.68 -22.3,-35.19 -22.3,-61.53l0 -120.78c0,-26.34 7.43,-46.85 22.3,-61.52 14.86,-14.68 35.27,-22.01 61.24,-22.01l81.84 0c5.27,0 7.91,2.63 7.91,7.9l0 20.88c0,4.89 -2.64,7.34 -7.91,7.34l-77.33 0c-31.23,0 -46.84,16.37 -46.84,49.11l0 117.39c0,32.74 15.61,49.11 46.84,49.11l77.33 0c5.27,0 7.91,2.63 7.91,7.9z"/>
   <path id="8" class="fil7" d="M3429.37 5719.49l-48.54 0c-25.97,0 -46.38,-7.34 -61.24,-22.01 -14.87,-14.68 -22.3,-35.19 -22.3,-61.53l0 -120.78c0,-26.34 7.43,-46.85 22.3,-61.52 14.86,-14.68 35.27,-22.01 61.24,-22.01l48.54 0c25.97,0 46.38,7.33 61.24,22.01 14.87,14.67 22.3,35.18 22.3,61.52l0 120.78c0,26.34 -7.43,46.85 -22.3,61.53 -14.86,14.67 -35.27,22.01 -61.24,22.01zm-44.03 -36.12l39.52 0c31.6,0 47.41,-16.18 47.41,-48.55l0 -118.52c0,-32.36 -15.81,-48.54 -47.41,-48.54l-39.52 0c-31.6,0 -47.41,16.18 -47.41,48.54l0 118.52c0,32.37 15.81,48.55 47.41,48.55z"/>
   <path id="9" class="fil7" d="M3618.45 5719.49l-25.4 0c-5.27,0 -7.9,-2.63 -7.9,-7.9l0 -272.05c0,-5.27 2.63,-7.9 7.9,-7.9l25.4 0c5.27,0 7.9,2.63 7.9,7.9l0 22.01 2.26 0c10.53,-19.94 30.48,-29.91 59.83,-29.91l20.88 0c33.12,0 56.07,12.79 68.86,38.38 6.03,-12.42 15.53,-21.92 28.51,-28.51 12.98,-6.58 26.62,-9.87 40.92,-9.87l19.76 0c25.58,0 45.53,7.33 59.83,22.01 14.3,14.67 21.45,35.18 21.45,61.52l0 196.42c0,5.27 -2.64,7.9 -7.91,7.9l-25.4 0c-5.26,0 -7.9,-2.63 -7.9,-7.9l0 -194.72c0,-32.74 -15.8,-49.11 -47.41,-49.11l-18.63 0c-16.93,0 -30.01,4.8 -39.23,14.39 -9.22,9.6 -13.83,22.67 -13.83,39.23l0 190.21c0,5.27 -2.63,7.9 -7.9,7.9l-25.4 0c-5.27,0 -7.9,-2.63 -7.9,-7.9l0 -194.72c0,-32.74 -15.8,-49.11 -47.41,-49.11l-20.89 0c-16.93,0 -29.91,4.52 -38.94,13.55 -9.03,9.03 -13.55,21.82 -13.55,38.38l0 191.9c0,5.27 -2.63,7.9 -7.9,7.9z"/>
   <path id="10" class="fil7" d="M4044.58 5719.49l-23.14 0c-6.77,0 -9.03,-3.01 -6.77,-9.03 6.02,-15.05 27.37,-73.47 64.06,-175.25 36.69,-101.79 57.29,-158.5 61.81,-170.17 2.25,-5.64 5.83,-8.46 10.72,-8.46l23.71 0c6.39,0 8.27,3.19 5.64,9.59l-125.29 344.85c-1.89,5.65 -5.46,8.47 -10.73,8.47z"/>
   <path id="11" class="fil7" d="M4356.7 5719.49l-29.35 0c-25.97,0 -46.38,-7.34 -61.24,-22.01 -14.87,-14.68 -22.3,-35.19 -22.3,-61.53l0 -120.78c0,-26.34 7.43,-46.85 22.3,-61.52 14.86,-14.68 35.27,-22.01 61.24,-22.01l122.47 0c5.27,0 7.9,2.63 7.9,7.9l0 272.05c0,5.27 -2.63,7.9 -7.9,7.9l-25.4 0c-5.27,0 -7.9,-2.63 -7.9,-7.9l0 -22.02 -2.26 0c-9.4,19.95 -28.6,29.92 -57.57,29.92zm59.83 -88.05l0 -158.6c0,-3.39 -1.88,-5.08 -5.64,-5.08l-79.03 0c-31.23,0 -46.84,16.37 -46.84,49.11l0 117.39c0,32.74 15.61,49.11 46.84,49.11l32.18 0c16.93,0 29.91,-4.52 38.94,-13.55 9.04,-9.03 13.55,-21.83 13.55,-38.38z"/>
   <path id="12" class="fil7" d="M4644.55 5704.25l-31.61 0c-25.58,0 -45.53,-7.34 -59.83,-22.01 -14.3,-14.68 -21.44,-35.19 -21.44,-61.53l0 -105.54c0,-26.34 7.43,-46.85 22.29,-61.52 14.86,-14.68 35.28,-22.01 61.24,-22.01l122.48 0c5.26,0 7.9,2.63 7.9,7.9l0 279.95c0,25.96 -7.43,46.38 -22.3,61.24 -14.86,14.87 -35.27,22.3 -61.24,22.3l-103.86 0c-5.64,0 -8.46,-2.64 -8.46,-7.91l0 -20.88c0,-5.27 2.82,-7.9 8.46,-7.9l98.78 0c31.61,0 47.41,-16.18 47.41,-48.54l0 -43.47 -2.25 0c-9.79,19.95 -28.98,29.92 -57.58,29.92zm59.83 -88.05l0 -143.36c0,-3.39 -1.88,-5.08 -5.64,-5.08l-78.46 0c-31.61,0 -47.41,16.37 -47.41,49.11l0 102.16c0,32.74 15.8,49.11 47.41,49.11l31.61 0c16.93,0 29.92,-4.52 38.95,-13.55 9.03,-9.03 13.54,-21.83 13.54,-38.38z"/>
   <path id="13" class="fil7" d="M4895.71 5431.64l49.68 0c5.64,0 8.46,2.44 8.46,7.33l0 20.89c0,5.27 -2.82,7.9 -8.46,7.9l-49.68 0c-3.38,0 -5.08,1.69 -5.08,5.08l0 238.75c0,5.27 -2.82,7.9 -8.46,7.9l-24.84 0c-5.27,0 -7.9,-2.63 -7.9,-7.9l0 -238.75c0,-3.39 -1.88,-5.08 -5.64,-5.08l-33.31 0c-5.26,0 -7.9,-2.63 -7.9,-7.9l0 -20.89c0,-4.89 2.64,-7.33 7.9,-7.33l33.31 0c3.76,0 5.64,-1.7 5.64,-5.08l0 -20.89c0,-26.72 6.59,-47.22 19.76,-61.52 13.17,-14.3 32.36,-21.45 57.57,-21.45l19.19 0c5.27,0 7.9,2.44 7.9,7.34l0 20.88c0,5.27 -2.63,7.9 -7.9,7.9l-14.11 0c-15.43,0 -26.15,3.86 -32.17,11.57 -6.02,7.72 -9.04,20.04 -9.04,36.97l0 19.2c0,3.38 1.7,5.08 5.08,5.08z"/>
   <path id="14" class="fil7" d="M5013.67 5467.76l-31.04 0c-5.27,0 -7.91,-2.45 -7.91,-7.34l0 -20.88c0,-5.27 2.64,-7.9 7.91,-7.9l31.04 0c3.76,0 5.65,-1.7 5.65,-5.08l0 -48.55c0,-5.26 2.63,-7.9 7.9,-7.9l25.4 0c4.89,0 7.33,2.64 7.33,7.9l0 48.55c0,3.38 2.07,5.08 6.21,5.08l59.83 0c5.65,0 8.47,2.63 8.47,7.9l0 20.88c0,4.89 -2.82,7.34 -8.47,7.34l-59.83 0c-4.14,0 -6.21,1.69 -6.21,5.08l0 162.55c0,31.98 16.56,47.98 49.68,47.98l22.01 0c5.64,0 8.47,2.63 8.47,7.9l0 20.88c0,4.89 -2.83,7.34 -8.47,7.34l-27.09 0c-25.97,0 -46.66,-7.24 -62.09,-21.73 -15.43,-14.49 -23.14,-34.71 -23.14,-60.68l0 -164.24c0,-3.39 -1.89,-5.08 -5.65,-5.08z"/>
   <path id="15" class="fil7" d="M5397.47 5719.49l-119.65 0c-25.97,0 -46.38,-7.34 -61.24,-22.01 -14.87,-14.68 -22.3,-35.19 -22.3,-61.53l0 -120.78c0,-26.34 7.43,-46.85 22.3,-61.52 14.86,-14.68 35.27,-22.01 61.24,-22.01l47.41 0c25.97,0 46.29,7.33 60.96,22.01 14.68,14.67 22.01,35.18 22.01,61.52l0 71.69c0,5.64 -2.63,8.46 -7.9,8.46l-159.72 0c-3.77,0 -5.65,1.7 -5.65,5.08l0 34.43c0,32.74 15.81,49.11 47.41,49.11l115.14 0c5.27,0 7.9,2.63 7.9,7.9l0 20.32c0,4.89 -2.63,7.34 -7.9,7.34zm-156.9 -154.08l121.91 0c3.76,0 5.64,-1.88 5.64,-5.65l0 -43.46c0,-32.36 -15.8,-48.54 -47.41,-48.54l-38.39 0c-31.6,0 -47.41,16.18 -47.41,48.54l0 43.46c0,3.77 1.88,5.65 5.65,5.65z"/>
   <path id="16" class="fil7" d="M5645.25 5691.27l0 20.88c0,4.89 -2.64,7.34 -7.91,7.34l-81.84 0c-25.97,0 -46.38,-7.34 -61.24,-22.01 -14.87,-14.68 -22.3,-35.19 -22.3,-61.53l0 -120.78c0,-26.34 7.43,-46.85 22.3,-61.52 14.86,-14.68 35.27,-22.01 61.24,-22.01l81.84 0c5.27,0 7.91,2.63 7.91,7.9l0 20.88c0,4.89 -2.64,7.34 -7.91,7.34l-77.33 0c-31.23,0 -46.84,16.37 -46.84,49.11l0 117.39c0,32.74 15.61,49.11 46.84,49.11l77.33 0c5.27,0 7.91,2.63 7.91,7.9z"/>
   <path id="17" class="fil7" d="M5736.12 5719.49l-25.4 0c-5.27,0 -7.9,-2.63 -7.9,-7.9l0 -380.98c0,-5.27 2.63,-7.9 7.9,-7.9l25.4 0c5.27,0 7.9,2.63 7.9,7.9l0 130.94 2.26 0c9.41,-19.94 28.6,-29.91 57.57,-29.91l31.61 0c25.59,0 45.53,7.33 59.83,22.01 14.3,14.67 21.45,35.18 21.45,61.52l0 196.42c0,5.27 -2.63,7.9 -7.9,7.9l-25.4 0c-5.27,0 -7.9,-2.63 -7.9,-7.9l0 -194.72c0,-32.74 -15.81,-49.11 -47.42,-49.11l-31.61 0c-16.93,0 -29.91,4.52 -38.94,13.55 -9.03,9.03 -13.55,21.82 -13.55,38.38l0 191.9c0,5.27 -2.63,7.9 -7.9,7.9z"/>
   <path class="fil7" d="M16366.63 5704.25l-31.61 0c-25.58,0 -45.53,-7.34 -59.83,-22.01 -14.3,-14.68 -21.44,-35.19 -21.44,-61.53l0 -105.54c0,-26.34 7.43,-46.85 22.29,-61.52 14.86,-14.68 35.28,-22.01 61.24,-22.01l122.48 0c5.26,0 7.9,2.63 7.9,7.9l0 279.95c0,25.96 -7.43,46.38 -22.3,61.24 -14.86,14.87 -35.27,22.3 -61.24,22.3l-103.86 0c-5.64,0 -8.46,-2.64 -8.46,-7.91l0 -20.88c0,-5.27 2.82,-7.9 8.46,-7.9l98.78 0c31.61,0 47.41,-16.18 47.41,-48.54l0 -43.47 -2.25 0c-9.79,19.95 -28.98,29.92 -57.58,29.92zm59.83 -88.05l0 -143.36c0,-3.39 -1.88,-5.08 -5.64,-5.08l-78.46 0c-31.61,0 -47.41,16.37 -47.41,49.11l0 102.16c0,32.74 15.8,49.11 47.41,49.11l31.61 0c16.93,0 29.92,-4.52 38.95,-13.55 9.03,-9.03 13.54,-21.83 13.54,-38.38z"/>
   <path id="1" class="fil7" d="M16548.37 5384.22l0 -53.05c0,-5.27 2.44,-7.91 7.34,-7.91l25.96 0c5.27,0 7.9,2.64 7.9,7.91l0 53.05c0,5.27 -2.63,7.9 -7.9,7.9l-25.96 0c-4.9,0 -7.34,-2.63 -7.34,-7.9zm0 327.36l0 -272.05c0,-5.27 2.44,-7.9 7.34,-7.9l25.96 0c5.27,0 7.9,2.63 7.9,7.9l0 272.05c0,5.27 -2.63,7.9 -7.9,7.9l-25.4 0c-5.27,0 -7.9,-2.63 -7.9,-7.9z"/>
   <path id="2" class="fil7" d="M16681.01 5467.76l-31.04 0c-5.27,0 -7.91,-2.45 -7.91,-7.34l0 -20.88c0,-5.27 2.64,-7.9 7.91,-7.9l31.04 0c3.76,0 5.65,-1.7 5.65,-5.08l0 -48.55c0,-5.26 2.63,-7.9 7.9,-7.9l25.4 0c4.89,0 7.33,2.64 7.33,7.9l0 48.55c0,3.38 2.07,5.08 6.21,5.08l59.83 0c5.65,0 8.47,2.63 8.47,7.9l0 20.88c0,4.89 -2.82,7.34 -8.47,7.34l-59.83 0c-4.14,0 -6.21,1.69 -6.21,5.08l0 162.55c0,31.98 16.56,47.98 49.68,47.98l22.01 0c5.64,0 8.47,2.63 8.47,7.9l0 20.88c0,4.89 -2.83,7.34 -8.47,7.34l-27.09 0c-25.97,0 -46.66,-7.24 -62.09,-21.73 -15.43,-14.49 -23.14,-34.71 -23.14,-60.68l0 -164.24c0,-3.39 -1.89,-5.08 -5.65,-5.08z"/>
   <path id="3" class="fil7" d="M16900.57 5719.49l-25.4 0c-5.27,0 -7.9,-2.63 -7.9,-7.9l0 -380.98c0,-5.27 2.63,-7.9 7.9,-7.9l25.4 0c5.27,0 7.9,2.63 7.9,7.9l0 130.94 2.26 0c9.41,-19.94 28.6,-29.91 57.57,-29.91l31.61 0c25.59,0 45.53,7.33 59.83,22.01 14.3,14.67 21.45,35.18 21.45,61.52l0 196.42c0,5.27 -2.63,7.9 -7.9,7.9l-25.4 0c-5.27,0 -7.9,-2.63 -7.9,-7.9l0 -194.72c0,-32.74 -15.81,-49.11 -47.42,-49.11l-31.61 0c-16.93,0 -29.91,4.52 -38.94,13.55 -9.03,9.03 -13.55,21.82 -13.55,38.38l0 191.9c0,5.27 -2.63,7.9 -7.9,7.9z"/>
   <path id="4" class="fil7" d="M17266.3 5719.49l-31.61 0c-25.58,0 -45.53,-7.34 -59.83,-22.01 -14.3,-14.68 -21.45,-35.19 -21.45,-61.53l0 -196.41c0,-5.27 2.64,-7.9 7.91,-7.9l25.4 0c5.26,0 7.9,2.63 7.9,7.9l0 194.72c0,32.74 15.61,49.11 46.85,49.11l32.17 0c16.93,0 29.92,-4.52 38.95,-13.55 9.03,-9.03 13.54,-21.83 13.54,-38.38l0 -191.9c0,-5.27 2.64,-7.9 7.9,-7.9l25.4 0c5.27,0 7.91,2.63 7.91,7.9l0 272.05c0,5.27 -2.64,7.9 -7.91,7.9l-25.4 0c-5.26,0 -7.9,-2.63 -7.9,-7.9l0 -22.02 -2.25 0c-9.41,19.95 -28.6,29.92 -57.58,29.92z"/>
   <path id="5" class="fil7" d="M17492.06 5683.37l80.16 0c31.98,0 47.97,-16.37 47.97,-49.11l0 -120.78c0,-32.74 -15.99,-49.11 -47.97,-49.11l-33.31 0c-16.93,0 -29.91,4.52 -38.94,13.55 -9.03,9.03 -13.55,21.64 -13.55,37.82l0 162.55c0,3.38 1.88,5.08 5.64,5.08zm-46.84 28.22l0 -380.98c0,-5.27 2.63,-7.9 7.9,-7.9l25.4 0c5.27,0 7.9,2.63 7.9,7.9l0 127.55 2.26 0c9.41,-19.94 28.6,-29.91 57.57,-29.91l31.61 0c25.59,0 45.81,7.34 60.68,22.01 14.86,14.68 22.29,35 22.29,60.96l0 124.73c0,26.34 -7.43,46.85 -22.29,61.53 -14.87,14.67 -35.09,22.01 -60.68,22.01l-124.73 0c-5.27,0 -7.9,-2.63 -7.9,-7.9z"/>
   <path id="6" class="fil7" d="M17770.88 5643.29l0 68.3c0,5.27 -2.44,7.9 -7.33,7.9l-28.79 0c-4.89,0 -7.34,-2.63 -7.34,-7.9l0 -68.3c0,-4.89 2.45,-7.34 7.34,-7.34l28.79 0c4.89,0 7.33,2.45 7.33,7.34z"/>
   <path id="7" class="fil7" d="M18010.19 5691.27l0 20.88c0,4.89 -2.64,7.34 -7.91,7.34l-81.84 0c-25.97,0 -46.38,-7.34 -61.24,-22.01 -14.87,-14.68 -22.3,-35.19 -22.3,-61.53l0 -120.78c0,-26.34 7.43,-46.85 22.3,-61.52 14.86,-14.68 35.27,-22.01 61.24,-22.01l81.84 0c5.27,0 7.91,2.63 7.91,7.9l0 20.88c0,4.89 -2.64,7.34 -7.91,7.34l-77.33 0c-31.23,0 -46.84,16.37 -46.84,49.11l0 117.39c0,32.74 15.61,49.11 46.84,49.11l77.33 0c5.27,0 7.91,2.63 7.91,7.9z"/>
   <path id="8" class="fil7" d="M18194.19 5719.49l-48.54 0c-25.97,0 -46.38,-7.34 -61.24,-22.01 -14.87,-14.68 -22.3,-35.19 -22.3,-61.53l0 -120.78c0,-26.34 7.43,-46.85 22.3,-61.52 14.86,-14.68 35.27,-22.01 61.24,-22.01l48.54 0c25.97,0 46.38,7.33 61.24,22.01 14.87,14.67 22.3,35.18 22.3,61.52l0 120.78c0,26.34 -7.43,46.85 -22.3,61.53 -14.86,14.67 -35.27,22.01 -61.24,22.01zm-44.03 -36.12l39.52 0c31.6,0 47.41,-16.18 47.41,-48.55l0 -118.52c0,-32.36 -15.81,-48.54 -47.41,-48.54l-39.52 0c-31.6,0 -47.41,16.18 -47.41,48.54l0 118.52c0,32.37 15.81,48.55 47.41,48.55z"/>
   <path id="9" class="fil7" d="M18383.27 5719.49l-25.4 0c-5.27,0 -7.9,-2.63 -7.9,-7.9l0 -272.05c0,-5.27 2.63,-7.9 7.9,-7.9l25.4 0c5.27,0 7.9,2.63 7.9,7.9l0 22.01 2.26 0c10.53,-19.94 30.48,-29.91 59.83,-29.91l20.88 0c33.12,0 56.07,12.79 68.86,38.38 6.03,-12.42 15.53,-21.92 28.51,-28.51 12.98,-6.58 26.62,-9.87 40.92,-9.87l19.76 0c25.58,0 45.53,7.33 59.83,22.01 14.3,14.67 21.45,35.18 21.45,61.52l0 196.42c0,5.27 -2.64,7.9 -7.91,7.9l-25.4 0c-5.26,0 -7.9,-2.63 -7.9,-7.9l0 -194.72c0,-32.74 -15.8,-49.11 -47.41,-49.11l-18.63 0c-16.93,0 -30.01,4.8 -39.23,14.39 -9.22,9.6 -13.83,22.67 -13.83,39.23l0 190.21c0,5.27 -2.63,7.9 -7.9,7.9l-25.4 0c-5.27,0 -7.9,-2.63 -7.9,-7.9l0 -194.72c0,-32.74 -15.8,-49.11 -47.41,-49.11l-20.89 0c-16.93,0 -29.91,4.52 -38.94,13.55 -9.03,9.03 -13.55,21.82 -13.55,38.38l0 191.9c0,5.27 -2.63,7.9 -7.9,7.9z"/>
   <path id="10" class="fil7" d="M18809.4 5719.49l-23.14 0c-6.77,0 -9.03,-3.01 -6.77,-9.03 6.02,-15.05 27.37,-73.47 64.06,-175.25 36.69,-101.79 57.29,-158.5 61.81,-170.17 2.25,-5.64 5.83,-8.46 10.72,-8.46l23.71 0c6.39,0 8.27,3.19 5.64,9.59l-125.29 344.85c-1.89,5.65 -5.46,8.47 -10.73,8.47z"/>
   <path id="11" class="fil7" d="M19121.52 5719.49l-29.35 0c-25.97,0 -46.38,-7.34 -61.24,-22.01 -14.87,-14.68 -22.3,-35.19 -22.3,-61.53l0 -120.78c0,-26.34 7.43,-46.85 22.3,-61.52 14.86,-14.68 35.27,-22.01 61.24,-22.01l122.47 0c5.27,0 7.9,2.63 7.9,7.9l0 272.05c0,5.27 -2.63,7.9 -7.9,7.9l-25.4 0c-5.27,0 -7.9,-2.63 -7.9,-7.9l0 -22.02 -2.26 0c-9.4,19.95 -28.6,29.92 -57.57,29.92zm59.83 -88.05l0 -158.6c0,-3.39 -1.88,-5.08 -5.64,-5.08l-79.03 0c-31.23,0 -46.84,16.37 -46.84,49.11l0 117.39c0,32.74 15.61,49.11 46.84,49.11l32.18 0c16.93,0 29.91,-4.52 38.94,-13.55 9.04,-9.03 13.55,-21.83 13.55,-38.38z"/>
   <path id="12" class="fil7" d="M19409.37 5704.25l-31.61 0c-25.58,0 -45.53,-7.34 -59.83,-22.01 -14.3,-14.68 -21.44,-35.19 -21.44,-61.53l0 -105.54c0,-26.34 7.43,-46.85 22.29,-61.52 14.86,-14.68 35.28,-22.01 61.24,-22.01l122.48 0c5.26,0 7.9,2.63 7.9,7.9l0 279.95c0,25.96 -7.43,46.38 -22.3,61.24 -14.86,14.87 -35.27,22.3 -61.24,22.3l-103.86 0c-5.64,0 -8.46,-2.64 -8.46,-7.91l0 -20.88c0,-5.27 2.82,-7.9 8.46,-7.9l98.78 0c31.61,0 47.41,-16.18 47.41,-48.54l0 -43.47 -2.25 0c-9.79,19.95 -28.98,29.92 -57.58,29.92zm59.83 -88.05l0 -143.36c0,-3.39 -1.88,-5.08 -5.64,-5.08l-78.46 0c-31.61,0 -47.41,16.37 -47.41,49.11l0 102.16c0,32.74 15.8,49.11 47.41,49.11l31.61 0c16.93,0 29.92,-4.52 38.95,-13.55 9.03,-9.03 13.54,-21.83 13.54,-38.38z"/>
   <path id="13" class="fil7" d="M19660.53 5431.64l49.68 0c5.64,0 8.46,2.44 8.46,7.33l0 20.89c0,5.27 -2.82,7.9 -8.46,7.9l-49.68 0c-3.38,0 -5.08,1.69 -5.08,5.08l0 238.75c0,5.27 -2.82,7.9 -8.46,7.9l-24.84 0c-5.27,0 -7.9,-2.63 -7.9,-7.9l0 -238.75c0,-3.39 -1.88,-5.08 -5.64,-5.08l-33.31 0c-5.26,0 -7.9,-2.63 -7.9,-7.9l0 -20.89c0,-4.89 2.64,-7.33 7.9,-7.33l33.31 0c3.76,0 5.64,-1.7 5.64,-5.08l0 -20.89c0,-26.72 6.59,-47.22 19.76,-61.52 13.17,-14.3 32.36,-21.45 57.57,-21.45l19.19 0c5.27,0 7.9,2.44 7.9,7.34l0 20.88c0,5.27 -2.63,7.9 -7.9,7.9l-14.11 0c-15.43,0 -26.15,3.86 -32.17,11.57 -6.02,7.72 -9.04,20.04 -9.04,36.97l0 19.2c0,3.38 1.7,5.08 5.08,5.08z"/>
   <path id="14" class="fil7" d="M19778.49 5467.76l-31.04 0c-5.27,0 -7.91,-2.45 -7.91,-7.34l0 -20.88c0,-5.27 2.64,-7.9 7.91,-7.9l31.04 0c3.76,0 5.65,-1.7 5.65,-5.08l0 -48.55c0,-5.26 2.63,-7.9 7.9,-7.9l25.4 0c4.89,0 7.33,2.64 7.33,7.9l0 48.55c0,3.38 2.07,5.08 6.21,5.08l59.83 0c5.65,0 8.47,2.63 8.47,7.9l0 20.88c0,4.89 -2.82,7.34 -8.47,7.34l-59.83 0c-4.14,0 -6.21,1.69 -6.21,5.08l0 162.55c0,31.98 16.56,47.98 49.68,47.98l22.01 0c5.64,0 8.47,2.63 8.47,7.9l0 20.88c0,4.89 -2.83,7.34 -8.47,7.34l-27.09 0c-25.97,0 -46.66,-7.24 -62.09,-21.73 -15.43,-14.49 -23.14,-34.71 -23.14,-60.68l0 -164.24c0,-3.39 -1.89,-5.08 -5.65,-5.08z"/>
   <path id="15" class="fil7" d="M20162.29 5719.49l-119.65 0c-25.97,0 -46.38,-7.34 -61.24,-22.01 -14.87,-14.68 -22.3,-35.19 -22.3,-61.53l0 -120.78c0,-26.34 7.43,-46.85 22.3,-61.52 14.86,-14.68 35.27,-22.01 61.24,-22.01l47.41 0c25.97,0 46.29,7.33 60.96,22.01 14.68,14.67 22.01,35.18 22.01,61.52l0 71.69c0,5.64 -2.63,8.46 -7.9,8.46l-159.72 0c-3.77,0 -5.65,1.7 -5.65,5.08l0 34.43c0,32.74 15.81,49.11 47.41,49.11l115.14 0c5.27,0 7.9,2.63 7.9,7.9l0 20.32c0,4.89 -2.63,7.34 -7.9,7.34zm-156.9 -154.08l121.91 0c3.76,0 5.64,-1.88 5.64,-5.65l0 -43.46c0,-32.36 -15.8,-48.54 -47.41,-48.54l-38.39 0c-31.6,0 -47.41,16.18 -47.41,48.54l0 43.46c0,3.77 1.88,5.65 5.65,5.65z"/>
   <path id="16" class="fil7" d="M20410.07 5691.27l0 20.88c0,4.89 -2.64,7.34 -7.91,7.34l-81.84 0c-25.97,0 -46.38,-7.34 -61.24,-22.01 -14.87,-14.68 -22.3,-35.19 -22.3,-61.53l0 -120.78c0,-26.34 7.43,-46.85 22.3,-61.52 14.86,-14.68 35.27,-22.01 61.24,-22.01l81.84 0c5.27,0 7.91,2.63 7.91,7.9l0 20.88c0,4.89 -2.64,7.34 -7.91,7.34l-77.33 0c-31.23,0 -46.84,16.37 -46.84,49.11l0 117.39c0,32.74 15.61,49.11 46.84,49.11l77.33 0c5.27,0 7.91,2.63 7.91,7.9z"/>
   <path id="17" class="fil7" d="M20500.94 5719.49l-25.4 0c-5.27,0 -7.9,-2.63 -7.9,-7.9l0 -380.98c0,-5.27 2.63,-7.9 7.9,-7.9l25.4 0c5.27,0 7.9,2.63 7.9,7.9l0 130.94 2.26 0c9.41,-19.94 28.6,-29.91 57.57,-29.91l31.61 0c25.59,0 45.53,7.33 59.83,22.01 14.3,14.67 21.45,35.18 21.45,61.52l0 196.42c0,5.27 -2.63,7.9 -7.9,7.9l-25.4 0c-5.27,0 -7.9,-2.63 -7.9,-7.9l0 -194.72c0,-32.74 -15.81,-49.11 -47.42,-49.11l-31.61 0c-16.93,0 -29.91,4.52 -38.94,13.55 -9.03,9.03 -13.55,21.82 -13.55,38.38l0 191.9c0,5.27 -2.63,7.9 -7.9,7.9z"/>
   <g>
   </g>
   <g style="clip-path:url(#id0)">
    <g id="_2509810585440">
     <path class="fil1" d="M3370.18 1640.87l-68.1 312.73 -177.41 0 68.1 -312.73c5.35,-24.58 2.25,-29.11 -22.89,-29.11l-64.05 0c-24.98,0 -30.21,4.53 -35.5,28.49 0,0 0,0.41 0,0.62l-68.11 312.73 -177.56 0 68.16 -312.73c5.34,-24.58 2.24,-29.11 -22.95,-29.11l-64.06 0c-25.19,0 -30.26,4.58 -35.6,29.11l-68.16 312.73 -177.4 0 104.56 -480.05 144.1 0 22.84 41.25c13.14,-13.5 29.05,-24.16 46.69,-31.26 17.64,-7.11 36.61,-10.51 55.69,-9.99l36.77 0c69.39,0 116.19,29.42 132.95,79.16 31.01,-55.31 75.95,-79.16 130.23,-79.16l36.82 0c104.24,0 157.23,65.67 134.87,167.32z"/>
     <path class="fil1" d="M3911.22 1640.87l-31.66 145.4c-22.15,101.66 -103.81,167.32 -208.15,167.32l-134.39 0c-104.2,0 -157.19,-65.72 -135.02,-167.37l31.64 -145.35c22.1,-101.66 103.77,-167.32 208.15,-167.32l134.61 0c103.98,0 157.03,65.67 134.82,167.32zm-177.57 0c5.34,-24.58 2.23,-29.11 -22.9,-29.11l-64.05 0c-25.19,0 -30.27,4.58 -35.6,29.11l-31.71 145.35c-5.33,24.58 -2.19,29.11 22.94,29.11l64.06 0c25.14,0 30.27,-4.58 35.62,-29.11l31.64 -145.35z"/>
     <path class="fil1" d="M5018.44 1602.64c-6.49,27.29 -22.17,51.68 -44.52,69.27l-90.36 72.91c-21.66,17.78 -48.92,27.78 -77.22,28.33l-125.12 0 -2.82 12.87c-5.34,24.58 -2.24,29.11 22.95,29.11l270.71 0 -30.11 138.26 -306.14 0c-104.2,0 -157.19,-65.72 -135.04,-167.37l31.66 -145.35c22.15,-101.66 103.8,-167.32 208.14,-167.32l134.71 0c103.94,0.21 157.67,62.44 143.15,129.3zm-185.85 38.23c5.35,-24.58 2.26,-29.11 -22.94,-29.11l-64.05 0c-25.09,-0.06 -30.43,4.58 -35.77,29.11l-10.67 50.05 105.67 0c4.74,-0.2 9.29,-1.89 12.96,-4.83 3.64,-2.94 6.22,-6.97 7.33,-11.48l7.46 -33.74z"/>
     <path class="fil3" d="M5217.88 1872.1c-9.81,45.04 -46.27,81.55 -101.4,81.55 -55.14,0 -75.64,-36.45 -65.82,-81.55 9.83,-45.11 46.29,-81.51 101.42,-81.51 55.14,0 75.47,36.4 65.8,81.51z"/>
     <path class="fil1" d="M5598.53 1473.55l-30.1 138.15 -74.72 341.84 -177.37 0 74.74 -341.84 -88.56 0 30.16 -138.2 265.85 0.05zm-131.72 -89.64c-30.74,-33.32 -21.36,-90.51 20.87,-127.64 42.21,-37.13 101.42,-40.15 132.3,-6.76 30.91,33.38 21.36,90.56 -20.87,127.69 -42.21,37.13 -101.51,40.15 -132.3,6.71z"/>
     <path class="fil1" d="M5883.24 1542.65l-53.06 243.58c-5.34,24.58 -2.24,29.11 22.9,29.11l110.32 0 -30.11 138.26 -145.64 0c-104.2,0 -157.23,-65.72 -135.08,-167.37l53.04 -243.58 -67.09 0 30.1 -138.26 67.26 0 24.67 -113.21 177.55 0 -24.65 113.21 139.61 0 -30.26 138.26 -139.56 0z"/>
     <polygon class="fil1" points="1832.29,1296.74 2057.41,1296.74 1870.13,2166.39 1645,2166.39 "/>
     <polygon class="fil1" points="2162.63,1296.74 2387.75,1296.74 2241.82,1978.14 2016.64,1978.14 "/>
     <polygon class="fil1" points="1498.66,1296.74 1723.79,1296.74 1577.87,1978.14 1352.69,1978.14 "/>
     <polygon class="fil1" points="4568.19,1473.55 4239.25,1953.6 4057.79,1953.6 3937.81,1473.55 4132.14,1473.55 4184.39,1788.78 4373.86,1473.81 "/>
    </g>
   </g>
   <polygon class="fil8" points="1352.7,2166.38 6052.97,2166.38 6052.97,1226.34 1352.7,1226.34 "/>
   <g>
   </g>
   <g style="clip-path:url(#id1)">
    <g>
     <path class="fil1" d="M18135 1640.87l-68.1 312.73 -177.41 0 68.1 -312.73c5.35,-24.58 2.25,-29.11 -22.89,-29.11l-64.05 0c-24.98,0 -30.21,4.53 -35.5,28.49 0,0 0,0.41 0,0.62l-68.11 312.73 -177.56 0 68.16 -312.73c5.34,-24.58 2.24,-29.11 -22.95,-29.11l-64.06 0c-25.19,0 -30.26,4.58 -35.6,29.11l-68.16 312.73 -177.4 0 104.56 -480.05 144.1 0 22.84 41.25c13.14,-13.5 29.05,-24.16 46.69,-31.26 17.64,-7.11 36.61,-10.51 55.69,-9.99l36.77 0c69.39,0 116.19,29.42 132.95,79.16 31.01,-55.31 75.95,-79.16 130.23,-79.16l36.82 0c104.24,0 157.23,65.67 134.87,167.32z"/>
     <path class="fil1" d="M18676.04 1640.87l-31.66 145.4c-22.15,101.66 -103.81,167.32 -208.15,167.32l-134.39 0c-104.2,0 -157.19,-65.72 -135.02,-167.37l31.64 -145.35c22.1,-101.66 103.77,-167.32 208.15,-167.32l134.61 0c103.98,0 157.03,65.67 134.82,167.32zm-177.57 0c5.34,-24.58 2.23,-29.11 -22.9,-29.11l-64.05 0c-25.19,0 -30.27,4.58 -35.6,29.11l-31.71 145.35c-5.33,24.58 -2.19,29.11 22.94,29.11l64.06 0c25.14,0 30.27,-4.58 35.62,-29.11l31.64 -145.35z"/>
     <path class="fil1" d="M19783.26 1602.64c-6.49,27.29 -22.17,51.68 -44.52,69.27l-90.36 72.91c-21.66,17.78 -48.92,27.78 -77.22,28.33l-125.12 0 -2.82 12.87c-5.34,24.58 -2.24,29.11 22.95,29.11l270.71 0 -30.11 138.26 -306.14 0c-104.2,0 -157.19,-65.72 -135.04,-167.37l31.66 -145.35c22.15,-101.66 103.8,-167.32 208.14,-167.32l134.71 0c103.94,0.21 157.67,62.44 143.15,129.3zm-185.85 38.23c5.35,-24.58 2.26,-29.11 -22.94,-29.11l-64.05 0c-25.09,-0.06 -30.43,4.58 -35.77,29.11l-10.67 50.05 105.67 0c4.74,-0.2 9.29,-1.89 12.96,-4.83 3.64,-2.94 6.22,-6.97 7.33,-11.48l7.46 -33.74z"/>
     <path class="fil3" d="M19982.7 1872.1c-9.81,45.04 -46.27,81.55 -101.4,81.55 -55.14,0 -75.64,-36.45 -65.82,-81.55 9.83,-45.11 46.29,-81.51 101.42,-81.51 55.14,0 75.47,36.4 65.8,81.51z"/>
     <path class="fil1" d="M20363.35 1473.55l-30.1 138.15 -74.72 341.84 -177.37 0 74.74 -341.84 -88.56 0 30.16 -138.2 265.85 0.05zm-131.72 -89.64c-30.74,-33.32 -21.36,-90.51 20.87,-127.64 42.21,-37.13 101.42,-40.15 132.3,-6.76 30.91,33.38 21.36,90.56 -20.87,127.69 -42.21,37.13 -101.51,40.15 -132.3,6.71z"/>
     <path class="fil1" d="M20648.06 1542.65l-53.06 243.58c-5.34,24.58 -2.24,29.11 22.9,29.11l110.32 0 -30.11 138.26 -145.64 0c-104.2,0 -157.23,-65.72 -135.08,-167.37l53.04 -243.58 -67.09 0 30.1 -138.26 67.26 0 24.67 -113.21 177.55 0 -24.65 113.21 139.61 0 -30.26 138.26 -139.56 0z"/>
     <polygon class="fil1" points="16597.11,1296.74 16822.23,1296.74 16634.95,2166.39 16409.82,2166.39 "/>
     <polygon class="fil1" points="16927.45,1296.74 17152.57,1296.74 17006.64,1978.14 16781.46,1978.14 "/>
     <polygon class="fil1" points="16263.48,1296.74 16488.61,1296.74 16342.68,1978.14 16117.5,1978.14 "/>
     <polygon class="fil1" points="19333.01,1473.55 19004.07,1953.6 18822.61,1953.6 18702.63,1473.55 18896.96,1473.55 18949.21,1788.78 19138.68,1473.81 "/>
    </g>
   </g>
   <polygon class="fil8" points="16117.51,2166.38 20817.79,2166.38 20817.79,1226.34 16117.51,1226.34 "/>
  </g>
 </g>
</svg>
